<?xml version="1.0" encoding="UTF-8" standalone="no"?>
<svg
   version="1.1"
   id="svg4166"
   viewBox="0 0 880.79686 932.54796"
   height="932.54797"
   width="880.79688"
   xmlns="http://www.w3.org/2000/svg">
  <g
     transform="translate(-59.601562,-86.088289)"
     id="layer1">
    <path
       id="rect31335"
       d="M 385,201.08829 500,86.088289 615,201.08829 l 0,140 -115,-115 -115,115 z"
       fill="currentColor" />
       
    <path
       id="rect31335-1"
       transform="translate(0,52.362289)"
       d="m 148.72656,385 -89.124998,89.125 139.999998,0 89.125,-89.125 -140,0 z M 59.601562,525.875 148.72656,615 l 140,0 -89.125,-89.125 -139.999998,0 z"
       fill="currentColor" />
       
    <path
       id="path31364"
       transform="translate(0,52.362289)"
       d="m 711.27344,385 89.125,89.125 140,0 -89.125,-89.125 -140,0 z m 89.125,140.875 -89.125,89.125 140,0 89.125,-89.125 -140,0 z"
       fill="currentColor" />
       
    <path
       id="rect31335-5"
       d="M 615,903.63629 500,1018.6363 385,903.63629 l 0,-140 115,115 115,-115 z"
       fill="currentColor" />
       
    <path
       id="rect31405"
       d="m 76.863,129.22529 260,140 0,120 -120,0 z"
       fill="currentColor" />
       
    <path
       id="rect31405-2"
       d="m 76.863,975.49929 260,-140 0,-120 -120,0 z"
       fill="currentColor" />
       
    <path
       id="rect31405-2-1"
       d="m 923.137,975.49929 -260,-140 0,-120 120,0 z"
       fill="currentColor" />
       
    <path
       id="rect31405-3"
       d="m 923.137,129.22529 -260,140 0,120 120,0 z"
       fill="currentColor" />
       
    <path
       id="rect31333"
       transform="translate(0,52.362289)"
       d="M 500,273.72656 273.72656,500 500,726.27344 726.27344,500 500,273.72656 Z M 500,413.75 586.25,500 500,586.25 413.75,500 500,413.75 Z"
       fill="currentColor" />
  </g>
</svg>