<?xml version="1.0" encoding="UTF-8" standalone="no"?>
<svg
   version="1.1"
   id="svg4166"
   viewBox="0 0 885.69616 885.69616"
   height="885.69617"
   width="885.69617"
   xmlns="http://www.w3.org/2000/svg">
  <g
     transform="translate(-57.152,-109.51412)"
     id="layer1">
    <path
       id="rect31333-7-1"
       transform="translate(0,52.362289)"
       d="m 468.17969,281.82031 -186.35938,186.35938 93.75,0 92.60938,-92.60938 0,-93.75 z m 63.64062,0 0,93.75 92.60938,92.60938 93.75,0 L 531.82031,281.82031 Z M 250.08594,499.91406 250,500 l 0.0859,0.0859 0,-0.17188 z m 31.73437,31.90625 186.35938,186.35938 0,-93.75 -92.60938,-92.60938 -93.75,0 z m 342.60938,0 -92.60938,92.60938 0,93.75 186.35938,-186.35938 -93.75,0 z M 499.79492,749.79492 500,750 l 0.20508,-0.20508 -0.41016,0 z"
       fill="currentColor" />
       
    <path
       id="rect31405"
       d="m 76.863,129.22529 260,140 0,120 -120,0 z"
       fill="currentColor" />
       
    <path
       id="rect31405-2"
       d="m 76.863,975.49929 260,-140 0,-120 -120,0 z"
       fill="currentColor" />
       
    <path
       id="rect31405-2-1"
       d="m 923.137,975.49929 -260,-140 0,-120 120,0 z"
       fill="currentColor" />
       
    <path
       id="rect31405-3"
       d="m 923.137,129.22529 -260,140 0,120 120,0 z"
       fill="currentColor" />
       
    <rect
       transform="matrix(0.70710678,-0.70710678,0.70710678,0.70710678,0,0)"
       y="683.14453"
       x="-98.013687"
       height="121.97592"
       width="121.97592"
       id="rect31333-7-4"
       fill="currentColor" />
       
    <path
       id="rect31405-7"
       d="M 500,109.51412 542.4265,250.93579 500,293.36229 457.5735,250.93579 Z"
       fill="currentColor" />
       
    <path
       id="rect31405-7-9"
       d="M 500,995.21029 542.4265,853.78862 500,811.36212 l -42.4265,42.4265 z"
       fill="currentColor" />
       
    <path
       id="rect31405-7-5"
       d="m 57.152,552.36229 141.42167,-42.4265 42.4265,42.4265 -42.4265,42.4265 z"
       fill="currentColor" />
       
    <path
       id="rect31405-7-5-0"
       d="M 942.84817,552.36229 801.4265,509.93579 759,552.36229 l 42.4265,42.4265 z"
       fill="currentColor" />
  </g>
</svg>