<?xml version="1.0" encoding="UTF-8" standalone="no"?>
<svg
   style="shape-rendering:crispEdges"
   version="1.1"
   id="svg4166"
   viewBox="0 0 933.99999 913.27331"
   height="913.27332"
   width="934"
   xmlns="http://www.w3.org/2000/svg">
  <g
     transform="translate(-33,-69.088956)"
     id="layer1">
    <path
       id="rect31405-7"
       d="m 500,69.088956 63.64,212.133334 -63.64,63.64 -63.64,-63.64 z"
       fill="currentColor" />
       
    <path
       id="rect31405-2"
       d="m 729.20545,404.36227 -123.03645,-46.669 -46.669,46.669 46.669,46.669 z"
       fill="currentColor" />
       
    <path
       id="rect31405-2-0"
       d="m 272.795,404.36227 123.03645,-46.669 46.669,46.669 -46.669,46.669 z"
       fill="currentColor" />
       
    <circle
       r="37.5"
       cy="404.36227"
       cx="500"
       id="path5927"
       fill="currentColor" />
       
    <circle
       r="37.5"
       cy="458.86227"
       cx="70.5"
       id="path5927-8"
       fill="currentColor" />
       
    <circle
       r="37.5"
       cy="458.86227"
       cx="929.5"
       id="path5927-7"
       fill="currentColor" />
       
    <path
       id="path5972"
       transform="translate(33,69.088956)"
       d="M 467 394.77344 L 305.05859 546.71484 L 75 435.96875 L 140 733.27344 L 794 733.27344 L 859 435.96875 L 628.94141 546.71484 L 467 394.77344 z M 467 546.71484 L 528 607.71484 L 467 668.71484 L 406 607.71484 L 467 546.71484 z "
       fill="currentColor" />
       
    <path
       id="rect5974"
       d="m 173,852.36229 654,0 0,130 -654,0 z"
       fill="currentColor" />
  </g>
</svg>