<?xml version="1.0" encoding="UTF-8" standalone="no"?>
<svg
   version="1.1"
   id="svg4166"
   viewBox="0 0 932.54796 932.54796"
   height="932.54797"
   width="932.54797"
   xmlns="http://www.w3.org/2000/svg">
  <g
     transform="translate(-33.726,-86.088289)"
     id="layer1">
    
    <path
       id="rect31335"
       d="M 385,201.08829 500,86.088289 615,201.08829 l 0,140 -115,-115 -115,115 z"
       fill="currentColor" />
       
    <path
       id="rect31335-1"
       d="m 228.726,747.36229 -195,-195 115,-115 140,0 -115,115 125,125 z"
       fill="currentColor" />
       
    <path
       d="m 771.274,744.36229 195,-192 -115,-115 -140,0 115,115 -125,125 z"
       id="path31364"
       fill="currentColor" />
       
    <path
       id="rect31335-5"
       d="M 705,813.63629 500,1018.6363 295,813.63629 l 70,-70 135,135 135,-135 z"
       fill="currentColor" />
       
    <path
       id="rect31405"
       d="m 76.863,129.22529 260,140 0,120 -120,0 z"
       fill="currentColor" />
       
    <path
       id="rect31405-3"
       d="m 923.137,129.22529 -260,140 0,120 120,0 z"
       fill="currentColor" />
       
  </g>
</svg>