<?xml version="1.0" encoding="UTF-8" standalone="no"?>
<svg
   width="910"
   height="910"
   viewBox="0 0 909.99999 909.99999"
   id="svg4166"
   version="1.1"
   xmlns="http://www.w3.org/2000/svg">
  <g
     id="layer1"
     transform="translate(-45,-97.362289)">
     
    <path
       d="m 316.863,735.49929 -240,108 0,132 132,0 z"
       id="rect31405-2"
       fill="currentColor" />
       
    <path
       d="m 342.5,45 a 297.5,297.5 0 0 0 -179.17383,60.34375 l 53.69336,53.69336 A 222.5,222.5 0 0 1 342.5,120 222.5,222.5 0 0 1 565,342.5 222.5,222.5 0 0 1 526.12695,468.14453 l 5.89258,5.89258 A 222.5,222.5 0 0 1 657.5,435 222.5,222.5 0 0 1 880,657.5 222.5,222.5 0 0 1 841.12695,783.14453 l 53.45703,53.45703 A 297.5,297.5 0 0 0 955,657.5 297.5,297.5 0 0 0 657.5,360 297.5,297.5 0 0 0 639.0918,360.65234 297.5,297.5 0 0 0 640,342.5 297.5,297.5 0 0 0 342.5,45 Z M 105.41602,163.39844 A 297.5,297.5 0 0 0 45,342.5 297.5,297.5 0 0 0 342.5,640 297.5,297.5 0 0 0 360.9082,639.34766 297.5,297.5 0 0 0 360,657.5 297.5,297.5 0 0 0 657.5,955 297.5,297.5 0 0 0 836.67383,894.65625 L 782.98047,840.96289 A 222.5,222.5 0 0 1 657.5,880 222.5,222.5 0 0 1 435,657.5 222.5,222.5 0 0 1 473.87305,531.85547 l -5.89258,-5.89258 A 222.5,222.5 0 0 1 342.5,565 222.5,222.5 0 0 1 120,342.5 222.5,222.5 0 0 1 158.87305,216.85547 l -53.45703,-53.45703 z"
       transform="translate(0,52.362289)"
       id="path4152-2-1-0"
       fill="currentColor" />
       
    <path
       d="m 683.137,369.22529 240,-108 0,-132 -132,0 z"
       id="rect31405-2-1"
       fill="currentColor" />
       
    <circle
       id="path4152-2-2"
       cx="657.5"
       cy="709.8623"
       r="157.5"
       fill="currentColor" />
       
    <circle
       id="path4152-2-2-1"
       cx="342.5"
       cy="394.86227"
       r="157.5"
       fill="currentColor" />
       
  </g>
</svg>