<?xml version="1.0" encoding="UTF-8" standalone="no"?>
<svg
   width="920.46094"
   height="955.16071"
   viewBox="0 0 920.46093 955.1607"
   id="svg4166"
   version="1.1"
   xmlns="http://www.w3.org/2000/svg">
  <g
     id="layer1"
     transform="translate(-39.769531,-63.47557)">
     
    <path
       d="M 460.23047 0 A 275 275 0 0 0 201.51953 182.75781 L 261.4375 253.6582 A 200 200 0 0 1 460.23047 75 A 200 200 0 0 1 658.87695 253.83008 L 718.98438 182.70508 A 275 275 0 0 0 460.23047 0 z M 65.4375 417.84375 A 275 275 0 0 0 0 595.83008 A 275 275 0 0 0 275 870.83008 A 275 275 0 0 0 324.38477 866.23438 L 355.99805 778.42188 A 200 200 0 0 1 275 795.83008 A 200 200 0 0 1 75 595.83008 A 200 200 0 0 1 157.35938 434.38477 L 65.4375 417.84375 z M 854.73633 417.89648 L 763.14648 434.37695 A 200 200 0 0 1 845.46094 595.83008 A 200 200 0 0 1 645.46094 795.83008 A 200 200 0 0 1 564.51172 778.56055 L 596.03906 866.13477 A 275 275 0 0 0 645.46094 870.83008 A 275 275 0 0 0 920.46094 595.83008 A 275 275 0 0 0 854.73633 417.89648 z "
       transform="translate(39.769531,63.47557)"
       id="path4148-2-4"
       fill="currentColor" />
       
    <path
       id="rect31405-9-3-2"
       d="M 671.103,453.57529 872.74624,435.1361 903.80453,319.225 787.89343,288.16672 Z m -342.20647,0 L 127.25329,435.1361 96.195,319.225 212.1061,288.16672 Z M 500,749.93571 584.85281,933.78348 500,1018.6363 415.14719,933.78348 Z"
       fill="currentColor" />
       
    <path
       id="path4148"
       d="m 830.23102,659.3053 a 145,145 0 0 1 -145,145 145,145 0 0 1 -145,-145 145,145 0 0 1 145,-145 145,145 0 0 1 145,145 z M 645,338.47528 a 145,145 0 0 1 -145,145 145,145 0 0 1 -145,-145 145,145 0 0 1 145,-145 145,145 0 0 1 145,145 z M 459.76901,659.3053 a 145,145 0 0 1 -145,145 145,145 0 0 1 -145,-145 145,145 0 0 1 145,-145 145,145 0 0 1 145,145 z"
       fill="currentColor" />
       
  </g>
</svg>